<svg width="55" height="55" viewBox="0 0 55 55" fill="none" xmlns="http://www.w3.org/2000/svg">
<g id="circum:read">
<path id="Vector" d="M27.5 43.2735C22.9553 43.3323 18.4822 42.1384 14.5712 39.8229C10.6602 37.5075 7.46225 34.1597 5.32814 30.1468C4.9202 29.3241 4.70795 28.4183 4.70795 27.5C4.70795 26.5817 4.9202 25.6758 5.32814 24.8531C7.46225 20.8402 10.6602 17.4925 14.5712 15.177C18.4822 12.8615 22.9553 11.6677 27.5 11.7264C32.0447 11.6677 36.5178 12.8615 40.4288 15.177C44.3399 17.4925 47.5378 20.8402 49.6719 24.8531C50.0798 25.6758 50.2921 26.5817 50.2921 27.5C50.2921 28.4183 50.0798 29.3241 49.6719 30.1468C47.5378 34.1597 44.3399 37.5075 40.4288 39.8229C36.5178 42.1384 32.0447 43.3323 27.5 43.2735ZM27.5 14.0181C23.3802 13.9563 19.3231 15.0306 15.7737 17.1231C12.2243 19.2155 9.3199 22.2452 7.37918 25.8798C7.12816 26.3834 6.9975 26.9384 6.9975 27.5011C6.9975 28.0638 7.12816 28.6189 7.37918 29.1225C9.32041 32.7564 12.225 35.7855 15.7743 37.8775C19.3236 39.9695 23.3805 41.0436 27.5 40.9818C31.6198 41.0436 35.677 39.9693 39.2263 37.8769C42.7757 35.7845 45.6801 32.7547 47.6208 29.1202C47.8718 28.617 48.0025 28.0623 48.0025 27.5C48.0025 26.9376 47.8718 26.383 47.6208 25.8798C45.6801 22.2452 42.7757 19.2155 39.2263 17.1231C35.677 15.0306 31.6198 13.9563 27.5 14.0181Z" fill="black"/>
<path id="Vector_2" d="M27.5 36.7789C25.6648 36.7789 23.8708 36.2347 22.3449 35.2151C20.8189 34.1955 19.6296 32.7463 18.9273 31.0508C18.225 29.3553 18.0413 27.4896 18.3993 25.6897C18.7573 23.8897 19.6411 22.2364 20.9388 20.9387C22.2364 19.641 23.8898 18.7573 25.6897 18.3992C27.4897 18.0412 29.3554 18.225 31.0509 18.9273C32.7464 19.6296 34.1956 20.8189 35.2151 22.3448C36.2347 23.8707 36.7789 25.6647 36.7789 27.4999C36.7759 29.9599 35.7973 32.3183 34.0578 34.0578C32.3184 35.7973 29.96 36.7758 27.5 36.7789ZM27.5 20.508C26.1182 20.508 24.7675 20.9177 23.6185 21.6853C22.4696 22.4529 21.574 23.5439 21.045 24.8204C20.516 26.0968 20.3774 27.5015 20.6466 28.8568C20.9158 30.2121 21.5809 31.4571 22.5576 32.4345C23.5343 33.4118 24.7789 34.0777 26.134 34.3478C27.4891 34.6179 28.8939 34.4802 30.1707 33.9521C31.4476 33.4239 32.5391 32.529 33.3075 31.3806C34.0758 30.2321 34.4864 28.8817 34.4873 27.4999C34.4854 25.6473 33.7487 23.8711 32.4387 22.5612C31.1287 21.2512 29.3526 20.5144 27.5 20.5126V20.508Z" fill="black"/>
<path id="Vector_3" d="M27.5 32.1475C30.0667 32.1475 32.1475 30.0668 32.1475 27.5C32.1475 24.9333 30.0667 22.8525 27.5 22.8525C24.9332 22.8525 22.8525 24.9333 22.8525 27.5C22.8525 30.0668 24.9332 32.1475 27.5 32.1475Z" fill="black"/>
</g>
</svg>
